# xmcd
#
# Track frame offsets: 
#        150
#        12756
#        34666
#        56823
#        85931
#        105680
#        126118
#        142763
#        181778
#        197732
#        206259
#        217552
#        230474
#        259258
#        275086
#        291952
#
# Disc length: 4066 seconds
#
# Revision: 1
# Processed by: cddbd v1.5.2PL0 Copyright (c) Steve Scherf et al.
# Submitted via: ExactAudioCopyFreeDBPlugin 1.0
#
DISCID=de0fe010
DTITLE=Elvis Presley -  I,m 10,000 Years Old - Elvis Country - Ftd Dis
DTITLE=c 2
DYEAR=1971
DGENRE=Country
TTITLE0=I Really Don't Want To Know -  Undubbed Rough Mix
TTITLE1=Faded Love  - Takes 2 and 1*  Undubbed Rough Mix
TTITLE2=Tomorrow Never Comes  - 12 and  13* Undubbed Rough Mix
TTITLE3=Make The World Go Away - 1& 3* Undubbed Rough Mix
TTITLE4=Funny How Time Slips Away -  Undubbed Rough Mix
TTITLE5=I Washed My Hands In Muddy Water -  Undubbed Rough Mix
TTITLE6=I Didn't Make It On Playing Guitar
TTITLE7=Tomorrow Never Comes  - Takes 3 and 11
TTITLE8=There Goes My Everything  -  Take 1
TTITLE9=September Warm Up - Instrumental
TTITLE10=Snowbird  - Takes 4, 5 and 2
TTITLE11=Where Did They Go, Lord - Takes 2 and 3
TTITLE12=Whole Lot-ta Shakin' Goin On - Rough Mix With Horns
TTITLE13=When I'm Over You - Undubbed Rough Mix
TTITLE14=The Next Step Is Love -  Undubbed Rough Mix
TTITLE15=Love Letters -  Undubbed Rough Mix
EXTD=
EXTT0=
EXTT1=
EXTT2=
EXTT3=
EXTT4=
EXTT5=
EXTT6=
EXTT7=
EXTT8=
EXTT9=
EXTT10=
EXTT11=
EXTT12=
EXTT13=
EXTT14=
EXTT15=
PLAYORDER=
